#tb 0: 8341/125000
0,          0,          0,        1,   414720, 0x2580d574
0,          1,          1,        1,   414720, 0x97f55cd3
0,          2,          2,        1,   414720, 0x9408fb63
0,          3,          3,        1,   414720, 0x7e53c155
0,          4,          4,        1,   414720, 0xd8570262
0,          5,          5,        1,   414720, 0x9dc72ed5
0,          6,          6,        1,   414720, 0xf7d33211
0,          7,          7,        1,   414720, 0x95935e3b
0,          8,          8,        1,   414720, 0x62b1cdc5
0,          9,          9,        1,   414720, 0x971f500a
0,         10,         10,        1,   414720, 0x05f82b6c
0,         11,         11,        1,   414720, 0x7713e3cb
0,         12,         12,        1,   414720, 0x3170c2f0
0,         13,         13,        1,   414720, 0x8d818956
0,         14,         14,        1,   414720, 0x16775d71
0,         15,         15,        1,   414720, 0x63016ce1
0,         16,         16,        1,   414720, 0x2f94792c
0,         17,         17,        1,   414720, 0x37f67725
0,         18,         18,        1,   414720, 0xeb95adb1
0,         19,         19,        1,   414720, 0xbf32f6df
0,         20,         20,        1,   414720, 0x242f4d09
0,         21,         21,        1,   414720, 0x28a2a3b9
0,         22,         22,        1,   414720, 0x895de0a6
0,         23,         23,        1,   414720, 0xd3b46447
0,         24,         24,        1,   414720, 0x3bbfb7d1
0,         25,         25,        1,   414720, 0x0a5ee9ad
0,         26,         26,        1,   414720, 0xaabac502
0,         27,         27,        1,   414720, 0x0951779d
0,         28,         28,        1,   414720, 0x150e2073
0,         29,         29,        1,   414720, 0xb86d87ae
0,         30,         30,        1,   414720, 0x135411da
0,         31,         31,        1,   414720, 0x9c8fcda5
0,         32,         32,        1,   414720, 0xb7ba838e
0,         33,         33,        1,   414720, 0x7ef869e1
0,         34,         34,        1,   414720, 0xf9764d47
0,         35,         35,        1,   414720, 0xe6c72872
0,         36,         36,        1,   414720, 0xb95b73b8
0,         37,         37,        1,   414720, 0xa19e3221
0,         38,         38,        1,   414720, 0xc0be27cd
0,         39,         39,        1,   414720, 0xe97cd1a9
0,         40,         40,        1,   414720, 0xb6524a34
0,         41,         41,        1,   414720, 0x61a1607b
0,         42,         42,        1,   414720, 0x1dd9c606
0,         43,         43,        1,   414720, 0xe2e736fa
0,         44,         44,        1,   414720, 0x25b922d9
0,         45,         45,        1,   414720, 0xbc023b36
0,         46,         46,        1,   414720, 0x39bb5cdf
0,         47,         47,        1,   414720, 0xf83bfc4f
0,         48,         48,        1,   414720, 0x3eae7f36
0,         49,         49,        1,   414720, 0x8cf80c32
0,         50,         50,        1,   414720, 0xbc576c03
0,         51,         51,        1,   414720, 0x28b79ab1
0,         52,         52,        1,   414720, 0x15da1138
0,         53,         53,        1,   414720, 0x345ff676
0,         54,         54,        1,   414720, 0x0108f909
0,         55,         55,        1,   414720, 0x57459616
0,         56,         56,        1,   414720, 0x2f497782
0,         57,         57,        1,   414720, 0xb72b4f79
0,         58,         58,        1,   414720, 0x2bfd1967
0,         59,         59,        1,   414720, 0x974a99cd
0,         60,         60,        1,   414720, 0x5f5f4129
0,         61,         61,        1,   414720, 0x51ad9df4
0,         62,         62,        1,   414720, 0xd6e5c16c
0,         63,         63,        1,   414720, 0xd8751bda
0,         64,         64,        1,   414720, 0x216ed6f3
0,         65,         65,        1,   414720, 0x63a0a67d
0,         66,         66,        1,   414720, 0xe4f4eb0f
0,         67,         67,        1,   414720, 0xa1665ef8
0,         68,         68,        1,   414720, 0xc3116dfd
0,         69,         69,        1,   414720, 0x3213fd70
0,         70,         70,        1,   414720, 0x2af76048
0,         71,         71,        1,   414720, 0x3570085d
0,         72,         72,        1,   414720, 0x2a7c3c39
0,         73,         73,        1,   414720, 0xd8a6ba7e
0,         74,         74,        1,   414720, 0x48107b4d
0,         75,         75,        1,   414720, 0x653a0936
0,         76,         76,        1,   414720, 0xf68c77ab
0,         77,         77,        1,   414720, 0xa5ecde84
0,         78,         78,        1,   414720, 0xaec33ca1
0,         79,         79,        1,   414720, 0x26e68740
0,         80,         80,        1,   414720, 0xac09bfa5
0,         81,         81,        1,   414720, 0xed5111b2
0,         82,         82,        1,   414720, 0x38041c98
0,         83,         83,        1,   414720, 0x76fbde1d
0,         84,         84,        1,   414720, 0x3ae64b7d
0,         85,         85,        1,   414720, 0xb05f4da2
0,         86,         86,        1,   414720, 0x65769088
0,         87,         87,        1,   414720, 0xbc45ba59
0,         88,         88,        1,   414720, 0x8c893436
0,         89,         89,        1,   414720, 0x1d5ebe7f
0,         90,         90,        1,   414720, 0xa9cd5a53
0,         91,         91,        1,   414720, 0xc69e1fb0
0,         92,         92,        1,   414720, 0xb28a77ec
0,         93,         93,        1,   414720, 0x834f1219
0,         94,         94,        1,   414720, 0xba34c848
0,         95,         95,        1,   414720, 0x80e590c1
0,         96,         96,        1,   414720, 0x7146dc31
0,         97,         97,        1,   414720, 0x05929a5f
0,         98,         98,        1,   414720, 0x721708c5
0,         99,         99,        1,   414720, 0x4aa83cbe
0,        100,        100,        1,   414720, 0x221d799f
0,        101,        101,        1,   414720, 0xe9e72bec
0,        102,        102,        1,   414720, 0xb6a3385d
0,        103,        103,        1,   414720, 0x795a3362
0,        104,        104,        1,   414720, 0x770b58d9
0,        105,        105,        1,   414720, 0xb5563ce4
0,        106,        106,        1,   414720, 0x0c1a00cc
0,        107,        107,        1,   414720, 0xcbd467fd
0,        108,        108,        1,   414720, 0x3bccec29
0,        109,        109,        1,   414720, 0x92d78db7
